<svg id="Layer_1" data-name="Layer 1" xmlns="http://www.w3.org/2000/svg" width="1000" height="1000" viewBox="0 0 1000 1000"><defs><style>.cls-1{fill:#79ac53;}</style></defs><g id="Layer_2" data-name="Layer 2"><path class="cls-1" d="M402.1,477.87V768.94H307.58l-3-47.27h-1.5A74.44,74.44,0,0,1,284,750.18a83.81,83.81,0,0,1-27.75,16.88,152.15,152.15,0,0,1-33,7.88,281.15,281.15,0,0,1-35.63,2.25q-53.28,0-84-17.63T57,706.67q-15.76-35.25-19.88-87T33,501.13q0-67.51,7.88-119.28t30-87Q93,259.58,132,241.19t100.53-18.38q36.73,0,67.89,9.76a133.37,133.37,0,0,1,53.63,31.5q22.51,21.76,35.26,55.89t12.75,82.89h-135q0-42.75-7.5-62.26-7.5-23.25-32.26-23.26-17.27,0-27.38,8.26t-15,29.25q-4.89,21-6.38,56.64T177,501.13q0,54,1.5,89.64t6.38,56.64q4.88,21,14.25,29.25t25.13,8.26a42.32,42.32,0,0,0,19.88-4.5q8.63-4.51,14.63-16.88T268.2,629q3.38-22.12,3.37-56.64H222.06V477.87Z"/><path class="cls-1" d="M653.41,233.32l56.26,317.32h1.5l56.26-317.32H967V768.94H836.45V369.85H835L760.68,768.94H660.16L585.89,369.85h-1.5V768.94H453.86V233.32Z"/></g></svg>