<svg id="Layer_1" data-name="Layer 1" xmlns="http://www.w3.org/2000/svg" width="114.76cm" height="13.35cm" viewBox="0 0 3253.05 378.42"><defs><style>.cls-1{fill:#5bb24b;}</style></defs><path className="cls-1" d="M259.28,121.58q-8.55-36.85-41.75-51.51Q199,62,176.27,62q-43.46,0-71.41,32.78t-28,98.56q0,66.29,30.28,93.81T176,314.7q37.83,0,62-21.72t29.78-56.9H184.57V176h149.9V369.14h-49.8l-7.57-44.92q-21.74,25.51-39.06,36-29.79,18.22-73.25,18.23-71.53,0-117.18-49.53Q0,279.12,0,192.75q0-87.34,48.1-140T175.29,0Q243.9,0,285.52,34.79t47.73,86.79Z"/><path className="cls-1" d="M636.86,18.55A88.78,88.78,0,0,1,670.55,43.7,112,112,0,0,1,688.64,74q6.68,16.61,6.67,37.85,0,25.63-12.94,50.41t-42.72,35q24.9,10,35.28,28.44T685.3,282v24.17q0,24.66,2,33.45,3,13.92,13.88,20.51v9h-83q-3.42-12-4.88-19.29a177.16,177.16,0,0,1-3.17-31l-.49-33.45q-.47-34.42-11.89-45.9T554.89,228H481.45V369.14H408V9.28H580.09Q617,10,636.86,18.55ZM481.45,71.78v96.68h80.92q24.12,0,36.17-5.86,21.33-10.26,21.33-40.53,0-32.71-20.63-43.95-11.6-6.34-34.78-6.34Z"/><path className="cls-1" d="M1033.45,73H843v76.41h174.8v62.5H843v92.53h199.22v64.7H769.53V9.28h263.92Z"/><path className="cls-1" d="M1366.94,73H1176.51v76.41h174.81v62.5H1176.51v92.53h199.22v64.7H1103V9.28h263.91Z"/><path className="cls-1" d="M1433.11,9.28h78.83L1654.79,260.2V9.28h70.06V369.14h-75.18L1503.17,113.8V369.14h-70.06Z"/><path classNameName="cls-1" d="M2034.13,9.28h108.2V369.14h-70.06V125.73q0-10.49.24-29.42t.24-29.17l-68.19,302h-73.08l-67.71-302q0,10.24.24,29.17t.25,29.42V369.14h-70.07V9.28h109.42l65.51,283Z"/><path className="cls-1" d="M2314.82,9.28h85.08l127.32,359.86h-81.54l-23.75-74H2289.41l-24.4,74h-78.65Zm-5,223.87H2402l-45.46-141.6Z"/><path className="cls-1" d="M2803.61,18.55A88.94,88.94,0,0,1,2837.3,43.7,112,112,0,0,1,2855.39,74q6.68,16.61,6.67,37.85,0,25.63-12.94,50.41t-42.72,35q24.9,10,35.27,28.44T2852.05,282v24.17q0,24.66,2,33.45,3,13.92,13.89,20.51v9h-83q-3.42-12-4.88-19.29a177.16,177.16,0,0,1-3.17-31l-.49-33.45q-.47-34.42-11.9-45.9T2721.63,228h-73.44V369.14h-73.48V9.28h172.12Q2783.73,10,2803.61,18.55ZM2648.19,71.78v96.68h80.93q24.11,0,36.17-5.86,21.33-10.26,21.33-40.53,0-32.71-20.64-43.95-11.59-6.34-34.77-6.34Z"/><path className="cls-1" d="M2935.3,9.28h74V157.55l139-148.27h97.16l-147.68,148,155.25,211.86h-96.68L3045.49,212.05l-36.21,36.73V369.14h-74Z"/></svg>